<?xml version="1.0" encoding="UTF-8" standalone="no"?>
<!-- Created with Inkscape (http://www.inkscape.org/) -->

<svg
   width="48"
   height="48"
   viewBox="0 0 45 45"
   id="svg2"
   version="1.1"
   inkscape:version="1.2.2 (b0a8486541, 2022-12-01)"
   sodipodi:docname="ovpncdl-blue.svg"
   xmlns:inkscape="http://www.inkscape.org/namespaces/inkscape"
   xmlns:sodipodi="http://sodipodi.sourceforge.net/DTD/sodipodi-0.dtd"
   xmlns:xlink="http://www.w3.org/1999/xlink"
   xmlns="http://www.w3.org/2000/svg"
   xmlns:svg="http://www.w3.org/2000/svg"
   xmlns:rdf="http://www.w3.org/1999/02/22-rdf-syntax-ns#"
   xmlns:cc="http://creativecommons.org/ns#"
   xmlns:dc="http://purl.org/dc/elements/1.1/">
  <defs
     id="defs4">
    <linearGradient
       inkscape:collect="always"
       id="linearGradient4159">
      <stop
         style="stop-color:#00c400;stop-opacity:1"
         offset="0"
         id="stop4161" />
      <stop
         style="stop-color:#ffffff;stop-opacity:0"
         offset="1"
         id="stop4163" />
    </linearGradient>
    <inkscape:path-effect
       effect="skeletal"
       id="path-effect4191"
       is_visible="true"
       pattern="m 0.01588113,163.49476 c 0,-2.76 2.23999997,-5 4.99999997,-5 2.76,0 4.9999999,2.24 4.9999999,5 0,2.76 -2.2399999,5 -4.9999999,5 -2.76,0 -4.99999997,-2.24 -4.99999997,-5 z"
       copytype="single_stretched"
       prop_scale="1"
       scale_y_rel="false"
       spacing="0"
       normal_offset="0"
       tang_offset="0"
       prop_units="false"
       vertical_pattern="false"
       fuse_tolerance="0"
       lpeversion="0"
       hide_knot="false" />
    <inkscape:path-effect
       effect="skeletal"
       id="path-effect4184"
       is_visible="true"
       pattern="m 0.01588113,163.49476 c 0,-2.76 2.23999997,-5 4.99999997,-5 2.76,0 4.9999999,2.24 4.9999999,5 0,2.76 -2.2399999,5 -4.9999999,5 -2.76,0 -4.99999997,-2.24 -4.99999997,-5 z"
       copytype="single_stretched"
       prop_scale="1"
       scale_y_rel="false"
       spacing="0"
       normal_offset="0"
       tang_offset="0"
       prop_units="false"
       vertical_pattern="false"
       fuse_tolerance="0"
       lpeversion="0"
       hide_knot="false" />
    <inkscape:path-effect
       effect="skeletal"
       id="path-effect4176"
       is_visible="true"
       pattern="m 0.01588113,163.49476 c 0,-2.76 2.23999997,-5 4.99999997,-5 2.76,0 4.9999999,2.24 4.9999999,5 0,2.76 -2.2399999,5 -4.9999999,5 -2.76,0 -4.99999997,-2.24 -4.99999997,-5 z"
       copytype="single_stretched"
       prop_scale="1"
       scale_y_rel="false"
       spacing="0"
       normal_offset="0"
       tang_offset="0"
       prop_units="false"
       vertical_pattern="false"
       fuse_tolerance="0"
       lpeversion="0"
       hide_knot="false" />
    <inkscape:path-effect
       effect="skeletal"
       id="path-effect4172"
       is_visible="true"
       pattern="m 0.01588113,163.49476 c 0,-2.76 2.23999997,-5 4.99999997,-5 2.76,0 4.9999999,2.24 4.9999999,5 0,2.76 -2.2399999,5 -4.9999999,5 -2.76,0 -4.99999997,-2.24 -4.99999997,-5 z"
       copytype="single_stretched"
       prop_scale="1"
       scale_y_rel="false"
       spacing="0"
       normal_offset="0"
       tang_offset="0"
       prop_units="false"
       vertical_pattern="false"
       fuse_tolerance="0"
       lpeversion="0"
       hide_knot="false" />
    <inkscape:path-effect
       effect="skeletal"
       id="path-effect4168"
       is_visible="true"
       pattern="m 0.01588113,163.49476 c 0,-2.76 2.23999997,-5 4.99999997,-5 2.76,0 4.9999999,2.24 4.9999999,5 0,2.76 -2.2399999,5 -4.9999999,5 -2.76,0 -4.99999997,-2.24 -4.99999997,-5 z"
       copytype="single_stretched"
       prop_scale="1"
       scale_y_rel="false"
       spacing="0"
       normal_offset="0"
       tang_offset="0"
       prop_units="false"
       vertical_pattern="false"
       fuse_tolerance="0"
       lpeversion="0"
       hide_knot="false" />
    <inkscape:path-effect
       effect="skeletal"
       id="path-effect4160"
       is_visible="true"
       pattern="m -138.3909,-107.12693 c 0,-2.76 2.24,-5 5,-5 2.76,0 5,2.24 5,5 0,2.76 -2.24,5 -5,5 -2.76,0 -5,-2.24 -5,-5 z"
       copytype="single_stretched"
       prop_scale="1"
       scale_y_rel="false"
       spacing="0"
       normal_offset="0"
       tang_offset="0"
       prop_units="false"
       vertical_pattern="false"
       fuse_tolerance="0"
       lpeversion="0"
       hide_knot="false" />
    <inkscape:path-effect
       effect="skeletal"
       id="path-effect4156"
       is_visible="true"
       pattern="m -138.3909,-107.12693 c 0,-2.76 2.24,-5 5,-5 2.76,0 5,2.24 5,5 0,2.76 -2.24,5 -5,5 -2.76,0 -5,-2.24 -5,-5 z"
       copytype="single_stretched"
       prop_scale="1"
       scale_y_rel="false"
       spacing="0"
       normal_offset="0"
       tang_offset="0"
       prop_units="false"
       vertical_pattern="false"
       fuse_tolerance="0"
       lpeversion="0"
       hide_knot="false" />
    <inkscape:path-effect
       effect="skeletal"
       id="path-effect4152"
       is_visible="true"
       pattern="m -138.3909,-107.12693 c 0,-2.76 2.24,-5 5,-5 2.76,0 5,2.24 5,5 0,2.76 -2.24,5 -5,5 -2.76,0 -5,-2.24 -5,-5 z"
       copytype="single_stretched"
       prop_scale="1"
       scale_y_rel="false"
       spacing="0"
       normal_offset="0"
       tang_offset="0"
       prop_units="false"
       vertical_pattern="false"
       fuse_tolerance="0"
       lpeversion="0"
       hide_knot="false" />
    <inkscape:path-effect
       effect="skeletal"
       id="path-effect4148"
       is_visible="true"
       pattern="m -138.3909,-107.12693 c 0,-2.76 2.24,-5 5,-5 2.76,0 5,2.24 5,5 0,2.76 -2.24,5 -5,5 -2.76,0 -5,-2.24 -5,-5 z"
       copytype="single_stretched"
       prop_scale="1"
       scale_y_rel="false"
       spacing="0"
       normal_offset="0"
       tang_offset="0"
       prop_units="false"
       vertical_pattern="false"
       fuse_tolerance="0"
       lpeversion="0"
       hide_knot="false" />
    <inkscape:path-effect
       effect="skeletal"
       id="path-effect4144"
       is_visible="true"
       pattern="m -149.50258,-106.11678 c 0,-2.76 2.24,-5 5,-5 2.76,0 5,2.24 5,5 0,2.76 -2.24,5 -5,5 -2.76,0 -5,-2.24 -5,-5 z"
       copytype="single_stretched"
       prop_scale="1"
       scale_y_rel="false"
       spacing="0"
       normal_offset="0"
       tang_offset="0"
       prop_units="false"
       vertical_pattern="false"
       fuse_tolerance="0"
       lpeversion="0"
       hide_knot="false" />
    <radialGradient
       inkscape:collect="always"
       xlink:href="#linearGradient4159"
       id="radialGradient4165"
       cx="165"
       cy="152.3622"
       fx="165"
       fy="152.3622"
       r="155.5"
       gradientTransform="matrix(0.14490441,0,0,0.14500457,-1.414156,0.41936327)"
       gradientUnits="userSpaceOnUse" />
  </defs>
  <sodipodi:namedview
     id="base"
     pagecolor="#ffffff"
     bordercolor="#666666"
     borderopacity="1.0"
     inkscape:pageopacity="0.0"
     inkscape:pageshadow="2"
     inkscape:zoom="11.2"
     inkscape:cx="65.803571"
     inkscape:cy="27.767857"
     inkscape:document-units="px"
     inkscape:current-layer="layer1"
     showgrid="true"
     inkscape:window-width="2560"
     inkscape:window-height="1367"
     inkscape:window-x="0"
     inkscape:window-y="0"
     inkscape:window-maximized="1"
     inkscape:showpageshadow="2"
     inkscape:pagecheckerboard="0"
     inkscape:deskcolor="#d1d1d1">
    <inkscape:grid
       type="xygrid"
       id="grid4140"
       originx="744.09445"
       originy="0" />
  </sodipodi:namedview>
  <metadata
     id="metadata7">
    <rdf:RDF>
      <cc:Work
         rdf:about="">
        <dc:format>image/svg+xml</dc:format>
        <dc:type
           rdf:resource="http://purl.org/dc/dcmitype/StillImage" />
      </cc:Work>
    </rdf:RDF>
  </metadata>
  <g
     inkscape:label="Ebene 1"
     inkscape:groupmode="layer"
     id="layer1">
    <path
       style="opacity:1;fill:url(#radialGradient4165);fill-opacity:1;fill-rule:evenodd;stroke:#000000;stroke-width:0;stroke-linecap:butt;stroke-linejoin:miter;stroke-miterlimit:4;stroke-dasharray:none;stroke-opacity:1"
       d="M 0.03488802,0.04461461 H 44.955251 V 44.980543 H 42.271205 0.03488802 Z"
       id="path4164"
       inkscape:connector-curvature="0"
       inkscape:export-xdpi="4.52"
       inkscape:export-ydpi="4.52"
       sodipodi:nodetypes="cccccc" />
    <path
       style="fill:#000000;fill-rule:evenodd;stroke:none;stroke-width:1px;stroke-linecap:butt;stroke-linejoin:miter;stroke-opacity:1"
       d="m 247.0228,132.91256 c 2.51467,1.13756 -29.18805,71.82107 -70.76499,157.7757 -0.002,0.003 -0.23382,0.48339 -0.23549,0.48684 83.47422,-45.82666 152.17446,-80.98384 153.43729,-78.53555 1.26283,2.44828 -68.44086,38.68011 -155.70077,80.91843 -0.001,0.003 0.21548,-0.51027 0.21414,-0.5071 37.80883,-89.53391 70.53515,-161.27588 73.04982,-160.13832 z"
       id="path4166"
       inkscape:connector-curvature="0"
       inkscape:export-xdpi="18.000488"
       inkscape:export-ydpi="18.000488"
       inkscape:original-d="M 247.0228,132.91256 174.89058,292.36654 329.4596,212.63955 v 0"
       inkscape:path-effect="#path-effect4168"
       class="UnoptimicedTransforms"
       transform="matrix(0.13953786,0,0,0.13959286,-1.4354229,-18.257848)" />
    <path
       style="fill:#000000;fill-rule:evenodd;stroke:none;stroke-width:1px;stroke-linecap:butt;stroke-linejoin:miter;stroke-opacity:1"
       d="m 174.89058,450.67 c -2.66043,0 -3.41911,-69.10873 -1.54588,-156.01441 0,0 0,-1e-5 0,-1e-5 0.37237,-0.16208 -9.41428,4.0951 -9.04191,3.93302 -84.115397,36.56186 -153.235449,64.16381 -154.285832,61.6115 -1.0503834,-2.55231 69.284013,-32.3417 156.996422,-66.49417 0.29201,-0.1137 9.13108,-3.55239 9.42308,-3.66609 0,0 0,10e-6 0,10e-6 1.87323,89.62099 1.11455,160.63015 -1.54588,160.63015 z"
       id="path4170"
       inkscape:connector-curvature="0"
       inkscape:export-xdpi="18.000488"
       inkscape:export-ydpi="18.000488"
       inkscape:original-d="m 174.89058,450.67 v 0 -158.32229 L 10.016961,360.2001 v 0"
       inkscape:path-effect="#path-effect4172"
       class="UnoptimicedTransforms"
       transform="matrix(0.13953786,0,0,0.13959286,-1.4354229,-18.257848)" />
    <path
       style="fill:#000000;fill-rule:evenodd;stroke:none;stroke-width:1px;stroke-linecap:butt;stroke-linejoin:miter;stroke-opacity:1"
       d="m 51.235368,132.91256 c 2.203919,-1.70912 56.961702,65.38564 122.038192,149.41543 0.009,0.0121 4.962,6.4141 4.97137,6.42619 0,0 1e-5,10e-6 1e-5,10e-6 85.37785,56.66184 152.71672,103.85352 151.21467,106.11846 -1.50212,2.26505 -71.44966,-41.58829 -157.92336,-98.89374 0,0 -2e-5,-10e-6 -2e-5,-10e-6 0.009,0.0121 -5.03468,-6.47661 -5.02523,-6.46446 C 100.59008,204.62282 49.03163,134.62154 51.235368,132.91256 Z"
       id="path4174"
       inkscape:connector-curvature="0"
       inkscape:export-xdpi="18.000488"
       inkscape:export-ydpi="18.000488"
       inkscape:original-d="m 51.235368,132.91256 v 0 L 174.89058,292.36654 329.4596,394.87265 v 0"
       inkscape:path-effect="#path-effect4176"
       class="UnoptimicedTransforms"
       transform="matrix(0.13953786,0,0,0.13959286,-1.4354229,-18.257848)" />
    <path
       style="fill:#000000;fill-rule:evenodd;stroke:none;stroke-width:1px;stroke-linecap:butt;stroke-linejoin:miter;stroke-opacity:1"
       d="m 174.89058,303.7561 c 2.19154,1.67773 -21.42036,36.20579 -52.70513,77.07157 -31.284774,40.86577 -58.453948,72.67056 -60.645484,70.99283 -2.191535,-1.67773 21.420364,-36.20579 52.705134,-77.07156 31.28477,-40.86578 58.45394,-72.67057 60.64548,-70.99284 z"
       id="path4182"
       inkscape:connector-curvature="0"
       inkscape:export-xdpi="18.000488"
       inkscape:export-ydpi="18.000488"
       inkscape:original-d="M 174.89058,303.7561 61.539969,451.8205 v 0"
       inkscape:path-effect="#path-effect4184"
       class="UnoptimicedTransforms"
       transform="matrix(0.13953786,0,0,0.13959286,-1.4354229,-18.257848)" />
    <path
       style="fill:#000000;fill-rule:evenodd;stroke:none;stroke-width:1px;stroke-linecap:butt;stroke-linejoin:miter;stroke-opacity:1"
       d="m 123.36758,313.3448 c 0.56953,-0.13036 4.71582,15.58553 11.11688,44.00176 11.4718,-0.23325 24.58763,-0.51694 39.57287,-0.87341 4.0601,-4.57076 35.57446,-40.02688 39.63457,-44.59764 6.2382,-16.88426 12.97606,-34.96339 20.22184,-54.25258 0.0281,0.0298 -29.47776,-31.30549 -29.4497,-31.27565 -25.07248,-0.0215 -51.47729,-0.0795 -79.2528,-0.17277 2.36176,-5.24596 -51.701895,114.77964 -49.34014,109.53368 -1.548973,-2.77303 31.18381,55.83648 29.63483,53.06345 0.21008,0.0655 68.64126,21.43537 68.85134,21.50089 -0.30022,0.18266 89.84158,-54.61718 89.54136,-54.43451 -0.14451,0.87531 16.3253,-98.68085 16.18079,-97.80555 6.9e-4,-0.004 3.70925,-22.3647 3.70994,-22.36888 -1.33227,-1.76221 -47.52891,-62.90038 -48.86119,-64.6626 -5.36315,0.37327 -145.007179,10.03448 -150.370334,10.40775 -21.569507,63.09249 -41.756722,121.95184 -60.542701,176.49584 0.03246,0.05 49.539063,76.35786 49.571523,76.40782 36.957762,4.06459 70.622992,7.82717 100.834692,11.26875 90.26721,-41.55391 144.26121,-65.71421 144.73367,-64.70492 0.47245,1.00928 -52.79474,27.05888 -143.79521,70.35796 -31.24994,-3.27159 -66.38384,-7.02364 -105.257328,-11.24175 0.01378,0.0209 -53.488271,-81.18639 -53.474489,-81.1655 19.324546,-56.45963 40.394667,-117.76958 63.112515,-183.67182 -6.011673,0.46036 164.779372,-12.56308 158.767702,-12.10273 -1.53344,-1.99146 55.71825,72.39174 54.18481,70.40028 9.2e-4,-0.006 -3.96438,23.73386 -3.96347,23.72836 -0.14602,0.87381 -17.21816,102.83865 -17.36418,103.71247 -0.29956,0.1816 -95.64191,57.93626 -95.94146,58.11787 0.24121,0.0752 -75.654314,-23.59524 -75.41311,-23.5201 -0.923724,-1.70652 -31.269029,-57.78239 -32.192759,-59.48891 1.760536,-3.79096 51.945339,-111.78013 53.705879,-115.57109 30.243,-0.0933 58.77577,-0.15123 85.62082,-0.17277 0.045,0.0504 32.33289,36.20536 32.3779,36.25579 -7.49157,20.9531 -14.48762,40.37624 -20.99658,58.2998 4.67324,-4.96411 -47.47546,50.40839 -42.80223,45.44428 -16.6287,-0.35688 -30.75544,-0.63975 -42.86393,-0.87341 -6.94487,-29.89233 -10.06185,-45.9098 -9.49232,-46.04016 z"
       id="path4189"
       inkscape:connector-curvature="0"
       inkscape:export-xdpi="18.000488"
       inkscape:export-ydpi="18.000488"
       inkscape:original-d="m 123.36758,313.3448 10.3046,45.02096 h 41.2184 l 41.2184,-45.02096 20.60921,-56.27619 -30.9138,-33.76572 h -82.43681 l -51.52301,112.55238 30.9138,56.27619 72.13221,22.51049 92.74142,-56.27619 20.60919,-123.80763 -51.523,-67.53144 -154.569018,11.25524 -61.827608,180.08383 51.523006,78.78666 103.04601,11.25525 144.26443,-67.53144"
       inkscape:path-effect="#path-effect4191"
       class="UnoptimicedTransforms"
       transform="matrix(0.13953786,0,0,0.13959286,-1.4354229,-18.257848)" />
  </g>
</svg>
